# xmcd
# Copyright (C) 1995-1998 Ti Kan
#
# Track frame offsets:
#       150
#       22794
#       38479
#       55868
#       68085
#       81039
#       95738
#       112720
#       133107
#       145806
#       162161
#       187050
#       221500
#       240024
#       252925
#       273294
#       296812
#       310091
#       329267
#       341976
#
# Disc length: 4767 seconds
#
# Revision: 0
# Processed by: cddbd v1.5.2PL0 Copyright (c) Steve Scherf et al.
# Submitted via: CD-Transfer v1.0
#
DISCID=17129d14
DTITLE=Indie Rock - 
DYEAR=08
DGENRE=
TTITLE0=Raveonettes, The Aly, Walk With Me
TTITLE1=Stills, The Being Here
TTITLE2=Royal Bangs Broken Calculator
TTITLE3=Ra Ra Riot Can You Tell
TTITLE4=Annuals Confessor
TTITLE5=Cloud Cult Everybody Here Is Cloud
TTITLE6=Frightebned Rabbit Head Rolls Off
TTITLE7=Unicycle Loves You Hawaii
TTITLE8=Tokyo Police Club In A Cave
TTITLE9=Throw Me The Statue Lolita
TTITLE10=Okkervil River Lost Coastlines
TTITLE11=Titus Andronicus No Future Part One
TTITLE12=Love Is Chemicals Our Darkest Days And Nights
TTITLE13=Crystal Slits, The Shattered Shine
TTITLE14=Plus Minus Snowblind
TTITLE15=Firewater Some Kind Of Kindness
TTITLE16=Sleepercar Stumble In
TTITLE17=Hooray For Earth Take Care
TTITLE18=Someone Still Loves You, Boris Yeltzin Think I Wanna Die
TTITLE19=Grand Archives, The Torn Blue Foam Couch
EXTD=
EXTT0=
EXTT1=
EXTT2=
EXTT3=
EXTT4=
EXTT5=
EXTT6=
EXTT7=
EXTT8=
EXTT9=
EXTT10=
EXTT11=
EXTT12=
EXTT13=
EXTT14=
EXTT15=
EXTT16=
EXTT17=
EXTT18=
EXTT19=
PLAYORDER=
